<?xml version="1.0" encoding="UTF-8"?>
<svg version="1.1" xmlns="http://www.w3.org/2000/svg" width="512" height="512">
<path d="M0 0 C1.91996424 0.88048236 3.74490943 1.85285596 5.58241272 2.89437866 C6.26500656 3.26150467 6.9476004 3.62863068 7.65087891 4.00688171 C9.85295101 5.19667587 12.03961368 6.41210609 14.22694397 7.62875366 C15.75256554 8.45976919 17.27910399 9.28910356 18.80653381 10.11679077 C22.55327182 12.15188894 26.28860103 14.20695658 30.02119446 16.26785278 C32.87194118 17.83698337 35.73433785 19.38419711 38.59803772 20.92953491 C42.97599328 23.29433794 47.34102164 25.68113854 51.69667053 28.08676147 C54.03388084 29.37568571 56.37631924 30.65473444 58.71913147 31.93344116 C60.15957618 32.72709423 61.59970059 33.52132903 63.03944397 34.31625366 C63.6686676 34.65793579 64.29789124 34.99961792 64.94618225 35.35165405 C71.33783133 38.91201465 76.22513521 42.41704252 79.03944397 49.37875366 C79.38897747 50.70793206 79.72578237 52.04065602 80.03944397 53.37875366 C81.02299866 53.12480835 82.00655334 52.87086304 83.01991272 52.60922241 C111.94961117 45.33247061 143.69507129 42.73062015 173.03944397 49.37875366 C173.83157288 49.55567749 174.62370178 49.73260132 175.43983459 49.91488647 C184.08388112 51.90253657 192.524484 54.38700895 200.85194397 57.44125366 C201.81148987 57.79087158 201.81148987 57.79087158 202.79042053 58.14755249 C208.20067507 60.22725433 212.78146164 62.49178016 216.03944397 67.37875366 C216.87062688 72.05087652 216.69278227 75.39874621 214.03944397 79.37875366 C210.4275455 81.78668597 207.31385201 82.45721828 203.03944397 82.37875366 C200.15837057 81.65619651 197.55111075 80.47989581 194.85194397 79.25375366 C188.10259003 76.41547271 181.41912607 74.2388491 174.28944397 72.56625366 C173.47580383 72.37208862 172.6621637 72.17792358 171.8238678 71.97787476 C159.91048791 69.28046104 148.12423655 68.0082853 135.91444397 68.06625366 C134.65180725 68.07189331 133.38917053 68.07753296 132.08827209 68.08334351 C113.83994569 68.31783218 97.40501813 71.95266992 80.03944397 77.37875366 C79.92463684 78.00104858 79.80982971 78.62334351 79.69154358 79.26449585 C75.79598316 100.00783173 70.11004905 118.80686785 60.03944397 137.37875366 C59.50166321 138.39195679 59.50166321 138.39195679 58.95301819 139.42562866 C54.02951057 148.685217 48.68000727 157.22125658 42.03944397 165.37875366 C41.57634827 165.94868042 41.11325256 166.51860718 40.63612366 167.10580444 C29.28376396 180.97966186 14.49770189 197.00516015 -3.71055603 201.25375366 C-10.52834775 201.90805229 -17.43076405 199.24960805 -22.96055603 195.37875366 C-27.80955308 206.17804108 -27.33210104 219.53025175 -27.27305603 231.12875366 C-27.27223022 231.82197723 -27.27140442 232.51520081 -27.27055359 233.22943115 C-27.24201748 243.68581116 -26.59638784 253.83846071 -24.42767334 264.09068298 C-23.88155495 266.76572298 -23.39246756 269.44859278 -22.90733337 272.13534546 C-22.7293924 273.11923752 -22.55145142 274.10312958 -22.36811829 275.11683655 C-22.23362274 275.8632692 -22.0991272 276.60970184 -21.96055603 277.37875366 C-20.71291269 277.37598828 -20.71291269 277.37598828 -19.44006443 277.37316704 C0.81688619 277.32896059 21.07382848 277.29588374 41.33081722 277.27512932 C51.127021 277.26482537 60.92319253 277.25078187 70.71937561 277.22787476 C79.25967591 277.20791392 87.79995285 277.19503082 96.34027582 277.19057667 C100.86052598 277.18797386 105.38070933 277.18187445 109.90093803 277.16729355 C114.15999663 277.15366707 118.41896123 277.14954123 122.67803955 277.1525383 C124.23683242 277.1519904 125.7956286 277.14804323 127.35440254 277.14034271 C137.51771937 277.09261921 146.79223238 277.10327174 155.85194397 282.31625366 C156.74526428 282.8202771 157.63858459 283.32430054 158.55897522 283.84359741 C160.82665143 285.24705686 162.93883111 286.73841495 165.03944397 288.37875366 C171.69629185 284.31526835 175.72378933 279.92056465 178.03944397 272.37875366 C179.2129082 265.08788572 178.31139658 259.00702426 174.66053772 252.57406616 C170.61873391 247.10058727 165.5513957 244.10865847 159.03944397 242.37875366 C155.35071265 242.09102576 151.67153534 242.10170789 147.97303772 242.10531616 C145.77316297 242.08501354 143.57329322 242.06416252 141.37342834 242.04281616 C137.93319979 242.02031982 134.49317019 242.00378143 131.0528717 241.99789429 C113.42109041 241.94710785 97.48791818 241.61919082 83.63319397 229.22640991 C73.53422629 218.84130481 69.73840877 207.21034523 69.7247467 193.03671265 C69.94671824 180.71269551 74.73130261 171.05037529 83.14100647 162.15609741 C92.69189539 153.12831371 103.40680282 148.97992315 116.47694397 149.25375366 C117.30387756 149.2627771 118.13081116 149.27180054 118.98280334 149.28109741 C121.00181105 149.30443854 123.02066753 149.34030078 125.03944397 149.37875366 C125.01325989 148.52644165 124.98707581 147.67412964 124.96009827 146.79598999 C124.87462905 143.6184824 124.81207608 140.44156256 124.76478577 137.26327515 C124.7397178 135.89068265 124.70565315 134.51822265 124.6622467 133.14608765 C124.60126866 131.1682467 124.57583388 129.18941183 124.55116272 127.21078491 C124.5118866 125.42764893 124.5118866 125.42764893 124.47181702 123.60848999 C125.20773459 119.4211981 126.75625657 117.99067182 130.03944397 115.37875366 C134.11229303 114.19392485 136.27555808 114.11433162 140.28944397 115.50375366 C143.37991267 117.61089141 144.42132334 119.03483331 146.03944397 122.37875366 C146.38002014 125.42489624 146.38002014 125.42489624 146.33241272 128.77328491 C146.32274475 129.97533569 146.31307678 131.17738647 146.30311584 132.41586304 C146.27797913 133.66174194 146.25284241 134.90762085 146.22694397 136.19125366 C146.21340881 137.45646851 146.19987366 138.72168335 146.18592834 140.02523804 C146.15062715 143.14351009 146.10131216 146.26091408 146.03944397 149.37875366 C146.62746796 149.3676506 147.21549194 149.35654755 147.82133484 149.34510803 C153.95329059 149.23430738 160.08496102 149.15900079 166.21766663 149.10409546 C168.50489354 149.07898424 170.79204047 149.04488851 173.07899475 149.0015564 C176.37069962 148.94075785 179.66134167 148.91250927 182.95350647 148.89047241 C183.97248016 148.86466599 184.99145386 148.83885956 186.04130554 148.81227112 C193.99008397 148.80914591 193.99008397 148.80914591 197.66590881 151.69442749 C200.64026891 155.0582507 201.11784592 156.90984262 201.03944397 161.37875366 C199.83982223 164.84432757 198.82027906 166.77159553 195.92025757 169.02658081 C192.26315131 170.74312359 189.02827229 170.79656337 185.07142639 170.76351929 C183.88991753 170.77157845 183.88991753 170.77157845 182.68453979 170.77980042 C180.97946813 170.78955986 179.27434691 170.79252811 177.56925011 170.78944397 C174.86541564 170.78495469 172.16223184 170.79899859 169.45846558 170.81784058 C163.71463561 170.85458679 157.97087415 170.8683204 152.22694397 170.87875366 C145.57870739 170.89085376 138.93078824 170.91252231 132.28269386 170.95875549 C129.62825486 170.97227026 126.97422277 170.96816441 124.31976318 170.96334839 C122.67838534 170.97269585 121.03701192 170.98286638 119.39564514 170.99398804 C118.66550201 170.98783981 117.93535889 170.98169159 117.18309021 170.97535706 C109.11021777 171.07081045 102.79908195 173.61911568 97.03944397 179.37875366 C92.37810775 186.00589302 91.16403243 192.40667261 92.03944397 200.37875366 C93.08111938 203.5531484 94.47039024 206.43534631 96.03944397 209.37875366 C96.33077209 210.08258179 96.62210022 210.78640991 96.92225647 211.51156616 C98.33517457 213.8730167 99.55592304 214.24076499 102.03944397 215.37875366 C102.75730576 215.72651855 103.47516754 216.07428345 104.21478271 216.43258667 C110.78408697 219.33446536 116.36810284 219.92808953 123.49647522 219.84750366 C124.56129623 219.85455322 125.62611725 219.86160278 126.72320557 219.86886597 C131.23085104 219.89807999 135.73805091 219.88179862 140.2457428 219.86947632 C158.25363759 219.85641481 172.63092833 220.29680961 186.72694397 232.75375366 C196.64615198 244.01339519 201.59745713 255.1358989 200.91444397 270.37875366 C199.7026581 282.86423274 194.89113453 293.61815553 185.14491272 301.81234741 C181.88510987 304.20913561 178.66448179 306.56623475 175.03944397 308.37875366 C174.68874715 310.86960031 174.43583105 313.31327337 174.22694397 315.81625366 C173.193843 325.54812956 170.32670758 333.06505329 163.00038147 339.84750366 C154.11892785 346.78282202 144.93734901 349.48981466 133.76820374 349.52059937 C133.06656097 349.52407379 132.36491821 349.52754822 131.64201355 349.53112793 C130.127923 349.53844338 128.61382202 349.54381102 127.09971809 349.54741859 C124.69867559 349.55463157 122.29783187 349.5703323 119.89685059 349.58876038 C113.07355923 349.64101351 106.25038248 349.68920571 99.42689514 349.7046814 C95.244106 349.71478688 91.06182715 349.74416817 86.87924004 349.78600121 C85.2913544 349.79827169 83.70339663 349.80343971 82.11546516 349.80120277 C79.88978542 349.79883806 77.66556101 349.82109901 75.44007874 349.84872437 C74.17688309 349.85459061 72.91368744 349.86045685 71.61221313 349.86650085 C66.78521147 350.55858171 62.7949996 352.33060543 59.53944397 356.12875366 C58.74795499 359.69045408 59.06588453 362.87393967 60.03944397 366.37875366 C62.52069757 370.15025913 65.3268712 370.96258896 69.62282562 371.97341156 C74.31572973 372.76055762 79.02625175 372.65542719 83.77284241 372.63754272 C85.50132416 372.64279968 85.50132416 372.64279968 87.26472473 372.64816284 C91.05948481 372.65693707 94.85405711 372.65114453 98.64881897 372.64437866 C101.29906951 372.64572692 103.94931446 372.64766618 106.5995636 372.650177 C112.15083327 372.65380815 117.7020496 372.64904209 123.25331116 372.63949585 C129.64256578 372.6286344 136.0316925 372.63212345 142.42094398 372.64314866 C147.93123703 372.65227162 153.44149192 372.65348186 158.95179009 372.64827132 C162.23178292 372.64517621 165.51170362 372.64547531 168.79169464 372.6513443 C172.45737147 372.65646267 176.12280829 372.64862396 179.78846741 372.63754272 C181.38803284 372.64361542 181.38803284 372.64361542 183.01991272 372.64981079 C198.53133383 372.56359346 206.66189856 369.80013006 217.60194397 358.87875366 C218.26323303 358.18781616 218.92452209 357.49687866 219.60585022 356.78500366 C222.28204312 354.13888034 225.08933458 351.69493505 227.93177795 349.23031616 C231.29362115 346.27697216 234.53810883 343.20261858 237.78944397 340.12875366 C243.52562148 334.72823544 249.29259966 329.36750274 255.11366272 324.05844116 C257.16769698 322.17717614 259.21191145 320.28858705 261.24647522 318.38656616 C261.7887677 317.88125366 262.33106018 317.37594116 262.88978577 316.85531616 C263.98642913 315.83219351 265.08036533 314.80616118 266.17152405 313.77719116 C268.77705786 311.34812465 271.38314938 309.07029344 274.28163147 306.99594116 C283.53724857 300.18694604 286.72144377 293.02616887 290.03944397 282.37875366 C290.27743713 281.63979858 290.5154303 280.90084351 290.76063538 280.13949585 C303.23023461 240.54441361 300.22005389 195.30402156 281.22108459 158.22836304 C276.85958888 149.97710833 272.1437517 141.82663612 266.80116272 134.17172241 C264.55232966 130.60649927 264.51149458 128.52692745 265.03944397 124.37875366 C266.27900652 121.58973793 267.32395151 119.93524779 269.72694397 118.06625366 C273.15222408 117.04792714 276.55035644 116.61206404 280.03944397 117.37875366 C284.97311338 120.46731093 287.6552864 124.85203497 290.66444397 129.69125366 C291.18224426 130.52229614 291.70004456 131.35333862 292.23353577 132.20956421 C319.22410835 176.5239749 326.46306263 227.3747965 314.33583069 277.61508179 C312.8306385 283.64357442 311.08473963 289.51150254 309.03944397 295.37875366 C310.00612 295.40111084 310.00612 295.40111084 310.99232483 295.42391968 C320.46563016 295.75315454 329.51871177 300.0990276 336.44569397 306.55062866 C345.7084779 317.1755867 347.95904783 327.71134887 347.22596741 341.34603882 C346.11084053 353.49858643 337.97116029 361.93782688 329.15370178 369.53598022 C325.78029122 372.47622306 322.54074773 375.55491841 319.28944397 378.62875366 C313.5513006 384.03112271 307.78008988 389.39135281 301.96131897 394.70687866 C298.83300412 397.56753021 295.71576677 400.43985116 292.60194397 403.31625366 C292.06158508 403.81536255 291.5212262 404.31447144 290.9644928 404.82870483 C289.86979505 405.83995979 288.77515 406.85127179 287.68055725 407.86264038 C284.96766811 410.36889471 282.25349538 412.87375812 279.53944397 415.37875366 C278.4561044 416.3787469 277.37277106 417.3787469 276.28944397 418.37875366 C269.78944397 424.37875366 269.78944397 424.37875366 268.16468811 425.87850952 C267.08051602 426.87929629 265.99636891 427.88011012 264.9122467 428.88095093 C262.21694982 431.3691351 259.52123128 433.85685919 256.82460022 436.34359741 C256.02808044 437.07884644 256.02808044 437.07884644 255.21546936 437.82894897 C254.13937741 438.82086184 253.0617369 439.81109734 251.9825592 440.7996521 C249.1448627 443.40494555 246.34956387 446.04170757 243.60194397 448.74203491 C227.42641117 464.50553874 212.44820846 469.88398467 189.57411194 469.75106812 C188.08054858 469.7535039 186.58698687 469.75723077 185.09342957 469.76213074 C181.07588873 469.77144738 177.0585956 469.76218664 173.04107428 469.74879861 C168.79412212 469.73735181 164.54717986 469.74160246 160.30021667 469.74354553 C153.15709985 469.74442572 146.0140784 469.7334172 138.87098694 469.7149353 C130.69034006 469.69388578 122.50983379 469.69023523 114.32916534 469.69649726 C106.38317876 469.70226176 98.43724019 469.69645596 90.49126053 469.68532372 C87.14834298 469.68075857 83.8054556 469.67976793 80.46253586 469.68190956 C15.85436254 469.70629499 15.85436254 469.70629499 -7.64414978 459.35140991 C-8.54700714 458.95893066 -9.4498645 458.56645142 -10.38008118 458.16207886 C-20.66247702 453.67319234 -30.87637503 449.03110723 -41.08555603 444.37875366 C-43.9089622 443.09319456 -46.73267029 441.80831539 -49.5572052 440.52523804 C-51.29073942 439.7376818 -53.02362278 438.94869086 -54.75575256 438.15805054 C-55.91504776 437.63114624 -55.91504776 437.63114624 -57.09776306 437.09359741 C-57.77388641 436.78543091 -58.45000977 436.4772644 -59.1466217 436.15975952 C-61.13237591 435.27441505 -61.13237591 435.27441505 -63.96055603 434.37875366 C-64.21707947 435.34555054 -64.47360291 436.31234741 -64.73789978 437.30844116 C-68.04156334 448.8660575 -73.29553632 457.06567508 -83.84336853 463.44125366 C-90.29365915 466.29747091 -96.1677519 466.69777443 -103.13633728 466.71469116 C-104.10153793 466.72134796 -105.06673859 466.72800476 -106.06118774 466.73486328 C-108.09590257 466.74495072 -110.13065021 466.74968152 -112.16539001 466.74935913 C-115.25327477 466.75372569 -118.33972111 466.79006924 -121.42735291 466.82797241 C-123.4136762 466.83384297 -125.4000062 466.83781076 -127.38633728 466.83969116 C-128.29708511 466.85406219 -129.20783295 466.86843323 -130.1461792 466.88323975 C-140.10430158 466.81341753 -148.67725147 463.17650458 -155.96055603 456.37875366 C-164.50620575 447.03861044 -165.41135231 438.05638789 -165.39634705 425.7996521 C-165.4053359 424.33026874 -165.41554673 422.86089242 -165.42687988 421.39152527 C-165.45327173 417.41814121 -165.4604088 413.44495125 -165.46232724 409.471488 C-165.46446628 406.98347673 -165.47088346 404.4955141 -165.47881889 402.00751495 C-165.50653814 393.31173088 -165.51882891 384.61608436 -165.51646423 375.92025757 C-165.51466354 367.84031645 -165.54629596 359.76097725 -165.59369522 351.68118834 C-165.63304687 344.7229068 -165.64901069 337.76482098 -165.647098 330.80642915 C-165.64633661 326.65992928 -165.65469051 322.51396469 -165.68663216 318.3675766 C-165.71588864 314.46348987 -165.71577124 310.56044225 -165.69408226 306.65631676 C-165.69097065 305.23260906 -165.69787804 303.80883422 -165.71616364 302.38524055 C-165.85287511 290.99389788 -163.36813035 282.09042458 -155.71055603 273.44125366 C-147.23309526 265.76849667 -136.56398183 263.05204642 -125.40196228 263.11312866 C-124.21907875 263.11025848 -124.21907875 263.11025848 -123.01229858 263.10733032 C-121.35596902 263.10597844 -119.69962849 263.10960464 -118.0433197 263.11801147 C-115.53306329 263.12871101 -113.02352473 263.11808964 -110.51329041 263.10531616 C-108.89284614 263.10663821 -107.27240232 263.10920155 -105.65196228 263.11312866 C-104.91418045 263.1090802 -104.17639862 263.10503174 -103.41625977 263.1008606 C-92.3074587 263.19891006 -82.05539287 266.5026962 -73.96055603 274.37875366 C-70.40523095 279.12524903 -67.55618362 284.0492698 -64.96055603 289.37875366 C-63.58383728 288.6555896 -63.58383728 288.6555896 -62.17930603 287.91781616 C-60.93994751 287.27935874 -59.70035126 286.64136264 -58.46055603 286.00375366 C-57.85985291 285.68664429 -57.25914978 285.36953491 -56.64024353 285.04281616 C-52.15911896 282.75458234 -47.87711049 281.45560962 -42.96055603 280.37875366 C-43.22610291 279.38617554 -43.49164978 278.39359741 -43.76524353 277.37094116 C-51.92116829 246.29359002 -52.49668185 212.25152467 -43.32725525 181.23666382 C-43.20624451 180.62355347 -43.08523376 180.01044312 -42.96055603 179.37875366 C-44.20121839 177.67895727 -44.20121839 177.67895727 -46.14805603 176.12875366 C-74.31494347 149.58687896 -91.72182795 106.39276041 -93.83555603 68.25375366 C-93.88494324 67.41352661 -93.93433044 66.57329956 -93.98521423 65.70761108 C-94.29943465 57.34802145 -93.60223542 48.91122454 -87.96055603 42.37875366 C-81.69552867 36.90985686 -74.41148865 33.21142586 -67.08555603 29.37875366 C-65.84988871 28.72577743 -64.61462529 28.07203635 -63.37974548 27.41757202 C-60.83620076 26.06996807 -58.29117627 24.72522087 -55.745224 23.38217163 C-50.97122627 20.85972233 -46.21877181 18.29800954 -41.46763611 15.73275757 C-39.27262717 14.54815982 -37.0758741 13.3667876 -34.87730408 12.18881226 C-30.32819811 9.75054503 -25.79268806 7.30250403 -21.31993103 4.72640991 C-20.64293152 4.34347778 -19.96593201 3.96054565 -19.26841736 3.56600952 C-17.57328203 2.60327179 -15.88927062 1.62101262 -14.20664978 0.63656616 C-9.55532304 -1.16575298 -4.82163218 -1.52784276 0 0 Z M-10.23008728 22.40829468 C-11.42450361 23.04172206 -12.60501481 23.70182195 -13.77305603 24.38265991 C-14.73692986 24.90655807 -14.73692986 24.90655807 -15.72027588 25.44104004 C-17.81348432 26.58561569 -19.88626973 27.76278947 -21.96055603 28.94125366 C-23.40097002 29.73687185 -24.84263127 30.530236 -26.2855072 31.32138062 C-29.1717926 32.90844548 -32.05048617 34.50803624 -34.92295837 36.1199646 C-39.4347616 38.65021375 -43.97966569 41.11750898 -48.52891541 43.5796814 C-51.86141627 45.38498369 -55.18393861 47.20808362 -58.50596619 49.03256226 C-62.98623009 51.48971117 -67.47375118 53.93357494 -71.96055603 56.37875366 C-73.46714803 93.37395723 -58.73996884 129.43127265 -34.08555603 156.94125366 C-33.38688416 157.68504272 -32.68821228 158.42883179 -31.96836853 159.19515991 C-29.96055603 161.37875366 -29.96055603 161.37875366 -28.10508728 163.83578491 C-25.56005329 166.85366674 -22.66623068 169.15445513 -19.52305603 171.50375366 C-18.96295837 171.93301147 -18.40286072 172.36226929 -17.82579041 172.80453491 C-12.41828454 177.50048763 -12.41828454 177.50048763 -5.90586853 179.22250366 C2.20771387 175.70335949 8.69053061 169.36608737 15.03944397 163.37875366 C15.63370178 162.84894897 16.22795959 162.31914429 16.84022522 161.77328491 C40.54957164 139.76150506 56.22126995 103.18386049 59.03944397 71.37875366 C59.23473694 69.49736694 59.23473694 69.49736694 59.43397522 67.57797241 C59.54805725 65.71592163 59.54805725 65.71592163 59.66444397 63.81625366 C59.73920959 62.7012146 59.81397522 61.58617554 59.89100647 60.43734741 C58.93955491 57.01997782 58.58342097 56.70595971 55.74256897 54.87875366 C54.18671254 54.0234966 52.61754872 53.19222725 51.03944397 52.37875366 C50.15627502 51.89221313 49.27310608 51.40567261 48.36317444 50.90438843 C45.31027823 49.22413029 42.23959968 47.58039587 39.16444397 45.94125366 C36.85969556 44.7069924 34.55500998 43.47261379 32.25038147 42.23812866 C31.3671521 41.76582573 31.3671521 41.76582573 30.46607971 41.28398132 C26.22772369 39.01749635 21.99527978 36.74026277 17.76600647 34.45687866 C16.88315475 33.98042152 16.88315475 33.98042152 15.98246765 33.49433899 C13.15232584 31.96693399 10.32249126 30.43896363 7.49305725 28.9102478 C6.47195862 28.35973755 5.45085999 27.80922729 4.39881897 27.24203491 C3.50646545 26.76032837 2.61411194 26.27862183 1.69471741 25.78231812 C0.81847717 25.31914185 -0.05776306 24.85596558 -0.96055603 24.37875366 C-1.92058533 23.76274292 -2.88061462 23.14673218 -3.86973572 22.51205444 C-6.97359475 21.01728667 -6.97359475 21.01728667 -10.23008728 22.40829468 Z M-142.96055603 292.37875366 C-144.28202196 295.02168551 -144.09553115 297.0088227 -144.10772705 299.96975708 C-144.11488235 301.15864532 -144.12203766 302.34753357 -144.12940979 303.57244873 C-144.13209869 304.88363678 -144.1347876 306.19482483 -144.13755798 307.54574585 C-144.1438219 308.93530447 -144.15046863 310.32486141 -144.1574707 311.7144165 C-144.1748884 315.49556625 -144.18543481 319.27670334 -144.19367623 323.05788326 C-144.19882537 325.42016507 -144.20490118 327.78244295 -144.21118736 330.14472198 C-144.23024266 337.53546601 -144.24447237 344.92620003 -144.25279933 352.31696391 C-144.2625703 360.84867741 -144.28888456 369.38013137 -144.32930022 377.91175342 C-144.35946371 384.50546576 -144.37426846 391.09910373 -144.37758034 397.69288373 C-144.37993082 401.63126714 -144.38889031 405.56937339 -144.41404152 409.5076828 C-144.43733124 413.21448673 -144.44155216 416.92083121 -144.43128014 420.62768936 C-144.43054911 422.63281437 -144.44963463 424.63791608 -144.46934509 426.64294434 C-144.47885543 435.33614682 -144.47885543 435.33614682 -139.96055603 442.37875366 C-135.31738888 445.52984594 -130.99085163 445.83355305 -125.52696228 445.81234741 C-124.73080002 445.81758926 -123.93463776 445.82283112 -123.11434937 445.82823181 C-121.43768983 445.83462857 -119.76098528 445.83334552 -118.08433533 445.82479858 C-115.53379067 445.81628947 -112.98548921 445.84507826 -110.43516541 445.87680054 C-108.79909836 445.87841296 -107.16302739 445.87783423 -105.52696228 445.87484741 C-104.77258377 445.88608139 -104.01820526 445.89731537 -103.2409668 445.90888977 C-97.72830328 445.83715171 -94.52759549 444.48193812 -89.96055603 441.37875366 C-86.08191445 437.24153597 -85.8365154 433.24412834 -85.82011414 427.73706055 C-85.81440399 426.58749374 -85.80869385 425.43792694 -85.80281067 424.25352478 C-85.80169281 422.99628098 -85.80057495 421.73903717 -85.79942322 420.44369507 C-85.7947927 419.10310225 -85.78976772 417.76251075 -85.78437805 416.42192078 C-85.77127605 412.78344155 -85.76481359 409.14498077 -85.76036739 405.50648165 C-85.75743359 403.23229888 -85.75332823 400.95812113 -85.74886322 398.68394089 C-85.73519513 391.56550801 -85.72552466 384.44708662 -85.72166133 377.32864153 C-85.71717976 369.11677563 -85.69962449 360.9050761 -85.67066073 352.69326079 C-85.64903659 346.34154312 -85.63895669 339.98987224 -85.63762021 333.63811815 C-85.63657286 329.84625177 -85.63067986 326.05454195 -85.6128006 322.26271439 C-85.59630675 318.69546777 -85.59417062 315.12849518 -85.60293961 311.56122398 C-85.60407546 309.6324756 -85.5903689 307.70373625 -85.57618713 305.77503967 C-85.55161006 297.63931125 -85.55161006 297.63931125 -88.96055603 290.37875366 C-95.93928221 283.5886417 -104.138114 284.03450923 -113.27330017 284.06307983 C-115.38897745 284.0662401 -117.50325421 284.04274179 -119.61875916 284.01742554 C-120.98138762 284.01515197 -122.3440198 284.01444932 -123.70664978 284.01547241 C-124.93053406 284.01249146 -126.15441833 284.0095105 -127.41539001 284.00643921 C-134.0777885 284.7061264 -138.51767782 287.28251101 -142.96055603 292.37875366 Z M-63.65399551 315.53697586 C-66.08027027 318.95714579 -65.744978 322.53717406 -65.64170837 326.59701538 C-65.64258453 327.5049736 -65.64346069 328.41293182 -65.6443634 329.34840393 C-65.64019829 332.33597208 -65.59359741 335.32126753 -65.54649353 338.30844116 C-65.53529756 340.38493625 -65.52675927 342.46144724 -65.52076721 344.53796387 C-65.49790064 349.99309342 -65.43899531 355.44725854 -65.37254333 360.90200806 C-65.31107441 366.47224889 -65.2837423 372.04264615 -65.25352478 377.61312866 C-65.18925064 388.53542649 -65.0868968 399.45700976 -64.96055603 410.37875366 C-63.80728065 410.89435097 -63.80728065 410.89435097 -62.63070679 411.42036438 C-37.0625382 422.85536967 -37.0625382 422.85536967 -24.87071228 428.44515991 C-22.39810962 429.57415034 -19.92513051 430.70231168 -17.45201111 431.83016968 C-15.80440089 432.58384081 -14.15828529 433.34078632 -12.51353455 434.10067749 C19.28717415 448.77626857 51.05421802 448.5387679 85.48918724 448.5789423 C87.90503534 448.58190545 90.32087903 448.58601518 92.73672485 448.59044647 C100.32658214 448.604043 107.916429 448.61375405 115.50629759 448.61764836 C124.21432287 448.62214447 132.9221924 448.63979693 141.63017035 448.66864896 C148.40689326 448.69031236 155.18357239 448.70035472 161.96032953 448.70168948 C165.98966693 448.70273188 170.01885632 448.70852139 174.04815674 448.72650909 C177.83065608 448.74307673 181.6128972 448.74510362 185.39542007 448.73637009 C187.42683556 448.73524303 189.45824287 448.74888259 191.48960876 448.76312256 C206.49562306 448.69534184 216.4995482 445.07597381 227.10194397 434.44125366 C227.85604553 433.64848022 228.61014709 432.85570679 229.38710022 432.03890991 C232.13447901 429.2834387 235.00876616 426.75528866 237.94935608 424.21054077 C241.30810838 421.26687548 244.54446118 418.19661296 247.78944397 415.12875366 C253.52758734 409.72638462 259.29879806 404.36615452 265.11756897 399.05062866 C268.24588382 396.18997711 271.36312117 393.31765617 274.47694397 390.44125366 C275.01730286 389.94214478 275.55766174 389.44303589 276.11439514 388.92880249 C277.20909289 387.91754754 278.30373793 386.90623554 279.39833069 385.89486694 C281.57034839 383.88828707 283.7432047 381.88261674 285.91615295 379.87704468 C287.00037505 378.87631209 288.08452191 377.87549797 289.16859436 376.87460327 C291.85092652 374.3981404 294.53409873 371.92260094 297.21913147 369.44906616 C299.9075418 366.97201143 302.59248036 364.49123442 305.27577209 362.00863647 C306.52333357 360.85571283 307.77215617 359.70415312 309.02186584 358.55355835 C311.07231146 356.66509212 313.1186774 354.77228634 315.16444397 352.87875366 C315.80430237 352.29110229 316.44416077 351.70345093 317.10340881 351.09799194 C323.53674991 345.32013072 323.53674991 345.32013072 326.24256897 337.32797241 C326.34838041 332.2225705 326.0251726 328.71287587 323.03944397 324.37875366 C318.69321469 319.90374722 314.55532796 316.79581025 308.20741272 316.04281616 C307.22385803 316.02992554 306.24030334 316.01703491 305.22694397 316.00375366 C304.25112366 315.97539429 303.27530334 315.94703491 302.26991272 315.91781616 C294.21854369 317.06662093 288.91119596 321.9087469 283.28944397 327.44125366 C281.87983367 328.79598862 280.46967347 330.15015163 279.05897522 331.50375366 C278.37399963 332.16633179 277.68902405 332.82890991 276.98329163 333.51156616 C274.35563577 336.0355943 271.67264631 338.48995194 268.97694397 340.94125366 C264.46943108 345.05734074 259.99723411 349.20888942 255.53944397 353.37875366 C250.0607215 358.50253422 244.55687323 363.59604894 239.01210022 368.64828491 C236.89499876 370.58276779 234.80389434 372.54206937 232.72303772 374.51547241 C217.19228928 389.19912997 204.14234217 393.53257915 182.723526 393.52401733 C180.90244324 393.52905525 180.90244324 393.52905525 179.04457092 393.53419495 C175.73454216 393.54203422 172.42457616 393.54537055 169.11454248 393.54601073 C167.04131843 393.54672446 164.96810083 393.54886483 162.89487839 393.55150795 C155.64732703 393.56074132 148.39979398 393.56484527 141.15223694 393.5640564 C134.41985823 393.56345584 127.6875597 393.57400858 120.95520127 393.58980006 C115.15450325 393.60291647 109.35383131 393.60823859 103.55311859 393.60760099 C100.09768653 393.60734725 96.64232586 393.61012963 93.18690872 393.62077904 C89.32929152 393.63234518 85.47178266 393.62768817 81.614151 393.62167358 C80.48447906 393.62729309 79.35480713 393.6329126 78.19090271 393.63870239 C66.31853873 393.59182743 56.47294011 391.93495487 47.28944397 384.00375366 C40.11954066 375.63886646 37.51150457 368.91114542 37.73085022 357.66000366 C38.55335576 348.91437518 42.61831565 342.2386858 49.03944397 336.37875366 C55.92294101 331.05352859 62.79421126 329.14140614 71.51600647 329.09164429 C72.22754883 329.08481125 72.93909119 329.07797821 73.67219543 329.07093811 C75.20479723 329.05743314 76.73744301 329.04832684 78.27009583 329.04322815 C80.70069224 329.03487915 83.1309236 329.01432051 85.56141663 328.99069214 C91.59527337 328.93452153 97.6292191 328.89914139 103.66322327 328.86306763 C108.77105779 328.83173049 113.87871415 328.79246823 118.98640442 328.74281311 C121.3721107 328.72285776 123.75767588 328.71444922 126.14344788 328.70651245 C127.61659753 328.69353137 129.08974255 328.68000979 130.56288147 328.66586304 C131.84082581 328.65857178 133.11877014 328.65128052 134.43544006 328.64376831 C140.68412392 328.18428136 145.555845 326.86235263 150.03944397 322.37875366 C153.10899734 317.97906049 153.42232366 314.63541237 152.60975647 309.49203491 C151.38924399 304.96945099 148.97821755 302.92637158 145.03944397 300.62875366 C140.30750863 298.65711394 136.56042774 298.252289 131.4131012 298.24504089 C130.7484477 298.24277534 130.0837942 298.24050978 129.39899969 298.23817557 C127.17301029 298.23184837 124.94708199 298.23266414 122.72108459 298.23348999 C121.124221 298.23049753 119.52735813 298.2270948 117.93049622 298.22331238 C113.5912189 298.21447281 109.25196131 298.21213416 104.91267586 298.21149659 C102.1982312 298.21078558 99.48379155 298.20865019 96.76934814 298.20599937 C87.28906435 298.19674312 77.80879463 298.19266447 68.32850647 298.19345093 C59.51042614 298.19405044 50.69240724 298.18352431 41.87434244 298.16770726 C34.29196846 298.15459455 26.70961444 298.14926866 19.12722921 298.14990634 C14.60415585 298.15016041 10.08113697 298.14736 5.55807495 298.13672829 C1.29648245 298.12698546 -2.96500422 298.12701016 -7.22660065 298.13424492 C-8.78252061 298.13528342 -10.33844737 298.13297206 -11.89435577 298.12688446 C-31.26661905 298.05605951 -49.4766378 301.14743408 -63.65399551 315.53697586 Z " fill="rgb(185,28,28)" transform="translate(164.96055603027344,21.621246337890625)"/>
<path d="M0 0 C2.6258382 1.78870171 3.34201385 3.11189509 5 6 C5.67922119 10.22626516 5.46867883 12.21252406 3.2746582 15.89892578 C1.04758343 18.93512883 -1.27070245 21.48369043 -3.95703125 24.1171875 C-4.42308273 24.57803741 -4.88913422 25.03888733 -5.36930847 25.51370239 C-6.84562091 26.97238847 -8.32847839 28.42416118 -9.8125 29.875 C-15.59297869 35.54580123 -21.31878109 41.20363688 -26.58911133 47.36035156 C-30.36435639 51.74771025 -34.24362007 56.06723716 -40.125 57.1875 C-47.72841064 56.81959303 -52.88887593 50.55834556 -58.1875 45.5625 C-59.25387695 44.57926758 -59.25387695 44.57926758 -60.34179688 43.57617188 C-68.5748989 35.85425022 -68.5748989 35.85425022 -69.4375 30.0625 C-68.88393677 26.1875574 -67.40826469 24.04574652 -65 21 C-61.38946441 19.19473221 -57.91701664 19.15387707 -54 20 C-50.33385517 22.31907432 -47.21873512 25.10662439 -44 28 C-43.01 28.66 -42.02 29.32 -41 30 C-40.23333008 29.23333008 -39.46666016 28.46666016 -38.67675781 27.67675781 C-17.84082031 6.84082031 -17.84082031 6.84082031 -16.35900879 5.36291504 C-15.14500615 4.14542294 -13.94413527 2.91486921 -12.74511719 1.68261719 C-8.93606571 -1.99001611 -4.85621073 -1.34801712 0 0 Z " fill="rgb(185,28,28)" transform="translate(195,89)"/>
<path d="M0 0 C2.96042112 2.58249502 4.59480753 4.1801882 5.4453125 8 C5.64309205 11.48092002 5.09358548 13.82780271 3.4375 16.875 C0.29324208 19.61614793 -1.86283165 20.43902802 -6 21 C-9.90088244 19.89474997 -12.21867431 18.83015854 -15 15.875 C-16.44038253 11.73390022 -16.29869943 8.18556744 -15 4 C-10.40811718 -0.83356087 -6.39387309 -1.65358787 0 0 Z " fill="rgb(185,28,28)" transform="translate(415,107)"/>
</svg>
