<?xml version="1.0" standalone="no"?>
<!DOCTYPE svg PUBLIC "-//W3C//DTD SVG 20010904//EN"
 "http://www.w3.org/TR/2001/REC-SVG-20010904/DTD/svg10.dtd">
<svg version="1.0" xmlns="http://www.w3.org/2000/svg"
 width="2946.000000pt" height="867.000000pt" viewBox="0 0 2946.000000 867.000000"
 preserveAspectRatio="xMidYMid meet">

<g transform="translate(0.000000,867.000000) scale(0.100000,-0.100000)"
fill="#fff" stroke="none">
<path d="M4010 7421 c-131 -15 -267 -120 -337 -259 -38 -76 -38 -78 -38 -192
1 -158 29 -231 125 -329 69 -71 116 -98 230 -133 58 -17 218 -5 265 20 22 12
43 22 48 22 15 0 72 44 123 96 30 30 66 81 85 120 33 68 34 72 34 199 0 117
-2 135 -24 180 -34 69 -115 170 -165 203 -88 60 -220 88 -346 73z"/>
<path d="M16002 7328 c-11 -24 -45 -101 -77 -173 -31 -71 -68 -153 -81 -182
-13 -29 -51 -112 -83 -185 -33 -73 -73 -160 -89 -193 -16 -33 -44 -94 -62
-135 -37 -87 -54 -126 -104 -232 -20 -43 -36 -80 -36 -83 0 -7 -77 -171 -131
-278 -21 -43 -39 -84 -39 -90 0 -6 -9 -29 -19 -51 -10 -23 -36 -79 -56 -126
-38 -86 -70 -155 -145 -317 -50 -105 -54 -114 -121 -268 -28 -66 -55 -124 -59
-130 -4 -5 -44 -93 -90 -195 -45 -101 -95 -214 -112 -250 -47 -105 -55 -122
-78 -175 -12 -27 -35 -77 -50 -110 -15 -33 -37 -80 -48 -105 -11 -25 -39 -84
-61 -132 -23 -48 -41 -90 -41 -92 0 -3 -20 -49 -45 -103 -53 -113 -63 -135
-101 -223 -16 -36 -34 -72 -41 -81 -7 -8 -13 -21 -13 -28 0 -7 -9 -30 -19 -50
-11 -20 -33 -66 -50 -103 -20 -46 -36 -68 -48 -69 -97 -5 -1670 4 -1676 10 -4
4 -6 265 -5 581 l3 574 25 7 c14 4 375 7 803 8 l777 1 10 26 c15 39 13 567 -2
582 -9 9 -200 12 -799 12 -703 0 -789 2 -803 16 -14 14 -16 76 -16 534 l0 519
22 15 c20 14 125 16 933 16 713 0 915 3 928 13 15 11 17 43 17 297 l1 285 -23
18 c-22 18 -69 19 -1310 15 -1017 -3 -1290 -6 -1300 -16 -19 -19 -14 -4122 4
-4134 7 -4 476 -8 1041 -8 689 0 1035 -3 1048 -10 25 -14 25 -60 -1 -116 -67
-145 -85 -197 -76 -219 5 -13 73 -15 481 -15 298 0 483 4 495 10 19 10 101
173 290 575 23 50 59 126 80 170 21 44 50 107 65 140 15 33 49 105 75 160 48
100 160 333 186 390 8 17 19 37 24 45 5 8 26 51 46 95 82 183 101 224 257 545
84 176 114 237 181 385 100 217 126 267 153 301 22 28 24 28 49 14 28 -16 45
-46 124 -215 29 -60 80 -168 115 -240 34 -71 72 -152 84 -180 13 -27 26 -57
31 -65 22 -37 150 -303 150 -311 0 -13 49 -110 65 -129 7 -8 16 -26 20 -40 4
-14 67 -146 140 -295 169 -344 221 -454 230 -485 4 -14 13 -32 20 -40 12 -13
65 -120 109 -220 9 -19 20 -42 25 -50 16 -24 127 -259 161 -340 18 -41 39 -82
46 -91 8 -8 14 -20 14 -26 0 -5 14 -31 31 -56 l31 -47 416 0 c230 0 423 4 431
9 21 13 6 73 -40 164 -28 54 -39 88 -37 110 l3 32 460 6 c283 4 475 10 500 17
22 6 90 16 150 22 61 6 130 17 155 25 25 7 65 17 90 20 49 7 147 36 225 66 28
10 54 19 58 19 21 0 292 133 318 156 8 8 19 14 23 14 4 0 21 10 39 22 145 103
329 285 411 409 17 24 38 53 47 64 21 25 126 231 156 305 57 144 97 295 133
500 39 221 37 702 -4 905 -40 199 -61 291 -79 335 -8 19 -25 62 -37 95 -26 69
-67 163 -80 185 -5 8 -18 33 -28 55 -25 54 -122 194 -192 280 -196 238 -509
441 -820 534 -41 13 -95 29 -120 36 -25 8 -83 19 -130 25 -46 6 -92 15 -101
20 -9 5 -85 14 -170 20 -85 6 -183 15 -219 20 -36 5 -300 10 -587 10 l-523 0
-15 -23 c-13 -21 -15 -212 -15 -1640 0 -1467 -2 -1617 -16 -1632 -18 -18 -34
-16 -45 6 -30 57 -49 101 -49 112 0 7 -7 26 -16 42 -9 17 -50 107 -91 200 -42
94 -82 179 -89 190 -8 11 -14 26 -14 34 0 7 -9 32 -19 55 -69 148 -101 218
-101 224 0 4 -11 29 -24 57 -23 48 -50 105 -95 208 -12 26 -30 66 -41 90 -11
24 -20 48 -20 53 0 5 -14 36 -31 69 -17 33 -37 76 -44 95 -7 19 -27 67 -45
105 -93 202 -170 382 -170 398 0 9 -5 19 -10 22 -14 8 -44 71 -87 180 -19 50
-38 95 -43 100 -4 6 -22 44 -40 85 -17 41 -49 111 -69 155 -21 44 -48 107 -61
140 -13 33 -41 97 -62 141 -21 45 -38 86 -38 92 0 6 -20 51 -45 101 -25 50
-45 92 -45 95 0 3 -18 43 -40 90 -22 47 -40 90 -40 96 0 6 -9 28 -20 48 -10
20 -29 60 -41 87 -11 28 -29 68 -39 90 -58 126 -90 197 -115 255 -113 263
-127 290 -151 290 -18 0 -28 -10 -42 -42z m3102 -1307 c39 -6 105 -13 146 -16
75 -7 98 -11 200 -39 343 -94 603 -296 752 -586 50 -95 85 -184 94 -235 4 -22
13 -52 20 -66 7 -15 18 -64 24 -110 6 -46 15 -102 20 -124 5 -22 10 -134 10
-250 0 -207 -22 -424 -52 -510 -5 -16 -16 -55 -23 -85 -54 -218 -177 -418
-356 -575 -76 -67 -261 -175 -300 -175 -8 0 -23 -6 -34 -14 -21 -14 -108 -41
-185 -56 -205 -41 -232 -44 -520 -50 -196 -4 -303 -2 -320 5 l-25 10 -3 1415
c-1 778 0 1425 3 1438 3 13 14 26 25 30 28 10 439 5 524 -7z"/>
<path d="M5553 6806 c-4 -8 -35 -36 -68 -62 -33 -27 -67 -55 -75 -62 -88 -79
-188 -145 -326 -217 -27 -14 -56 -30 -64 -35 -39 -25 -294 -140 -311 -140 -10
0 -36 -7 -56 -15 -21 -8 -74 -22 -118 -30 -44 -8 -111 -22 -150 -31 -58 -13
-109 -15 -290 -10 -194 4 -230 8 -305 29 -95 27 -204 63 -235 76 -20 9 -133
60 -190 87 -26 12 -140 59 -200 83 -28 11 -246 120 -269 134 -11 7 -62 41
-113 76 -52 35 -97 61 -100 58 -6 -6 57 -137 135 -282 27 -49 64 -124 81 -165
18 -41 36 -83 42 -94 6 -10 17 -37 24 -60 7 -22 24 -70 38 -106 13 -36 41
-110 61 -165 20 -55 43 -114 51 -132 8 -17 15 -35 15 -40 0 -4 9 -37 20 -73
10 -36 31 -105 45 -155 15 -49 33 -106 40 -125 8 -19 25 -78 40 -130 28 -106
72 -252 86 -290 17 -48 59 -200 59 -216 0 -9 7 -30 15 -47 24 -53 62 -198 70
-267 4 -36 13 -79 20 -97 8 -18 17 -54 21 -80 3 -26 13 -64 21 -83 8 -19 18
-55 23 -80 10 -57 48 -214 62 -258 5 -19 16 -70 23 -115 26 -159 46 -273 61
-342 8 -38 19 -101 25 -139 5 -38 12 -73 15 -78 8 -12 43 -204 59 -323 8 -55
21 -138 29 -185 8 -47 20 -112 25 -145 5 -33 17 -105 26 -160 9 -55 22 -138
30 -185 7 -47 17 -121 20 -165 3 -44 12 -111 20 -150 7 -38 16 -108 20 -155 3
-47 13 -121 20 -165 8 -44 19 -161 25 -259 6 -98 13 -183 16 -187 3 -5 11 -87
19 -184 8 -96 21 -212 29 -257 8 -46 18 -109 22 -141 3 -32 8 -57 10 -55 1 2
8 62 14 133 6 72 15 150 21 174 5 24 16 125 25 225 8 99 16 188 19 196 2 8 11
103 20 210 9 107 20 211 25 230 5 19 12 76 15 125 4 50 13 117 20 150 8 33 19
113 25 177 6 65 14 128 19 140 5 13 12 59 15 103 4 44 14 107 21 140 8 33 21
111 30 174 8 62 17 117 20 121 2 4 9 49 15 101 6 52 17 117 25 144 7 28 18 85
24 128 6 43 15 86 20 95 5 9 14 57 20 105 7 48 16 98 20 111 5 12 12 49 16 82
11 109 98 522 150 714 33 124 54 218 60 275 4 33 13 72 20 87 7 15 16 42 20
60 3 18 15 60 26 93 20 61 63 212 105 365 27 98 95 334 125 430 11 36 28 97
39 135 10 39 30 102 45 140 14 39 33 90 40 115 30 98 47 147 66 186 10 23 19
47 19 54 0 6 6 26 14 43 8 18 37 88 64 157 28 69 64 150 81 180 16 30 46 89
66 130 20 41 43 87 51 102 25 46 12 108 -13 64z"/>
<path d="M21487 6688 c-16 -12 -17 -144 -17 -2068 0 -1919 1 -2056 17 -2067
25 -19 2691 -19 2717 0 16 12 17 36 14 304 -2 160 -7 295 -11 300 -5 4 -455
10 -1000 13 l-992 5 -3 576 c-2 527 -1 578 14 590 14 12 153 14 803 17 722 2
787 4 799 19 9 13 12 88 12 294 0 239 -2 280 -16 293 -14 14 -100 16 -799 16
-699 0 -785 2 -799 16 -14 14 -16 75 -16 528 0 426 2 515 14 532 14 19 37 19
939 22 841 2 926 4 938 19 11 13 14 74 14 289 0 252 -2 274 -19 293 l-19 21
-1287 0 c-1013 0 -1290 -3 -1303 -12z"/>
<path d="M8676 6661 c-8 -12 -8 -4104 0 -4125 6 -15 111 -16 1334 -16 1273 0
1328 1 1343 18 15 16 17 52 17 295 0 237 -2 278 -16 291 -14 14 -115 16 -963
16 -870 0 -950 1 -962 17 -12 13 -15 302 -19 1762 l-5 1746 -362 3 c-206 1
-364 -2 -367 -7z"/>
<path d="M24660 6661 c-13 -9 -15 -251 -18 -2058 l-2 -2048 22 -17 c21 -16 55
-18 360 -18 323 0 338 1 348 19 7 13 10 279 10 793 0 470 4 779 10 788 8 13
48 15 260 15 l252 0 26 -31 c15 -17 47 -62 72 -98 25 -37 72 -105 105 -152 33
-46 77 -110 97 -142 20 -31 62 -93 92 -137 92 -131 181 -261 292 -425 58 -85
124 -182 148 -215 38 -53 188 -271 225 -328 31 -46 64 -75 92 -81 16 -3 206
-6 422 -6 l392 -1 3 24 c2 17 -15 48 -56 103 -32 44 -75 102 -94 129 -19 28
-61 88 -93 135 -32 47 -61 87 -65 90 -3 3 -22 30 -43 60 -21 30 -55 80 -77
110 -38 52 -98 138 -144 205 -12 17 -42 57 -67 90 -25 33 -54 74 -63 90 -9 17
-43 66 -76 110 -33 44 -77 105 -97 135 -20 30 -53 75 -73 100 -20 25 -39 52
-42 60 -5 13 -117 170 -148 207 -6 7 -15 24 -20 39 -14 35 -1 49 63 70 276 89
526 255 667 443 50 67 150 258 150 286 0 9 7 29 15 45 9 17 25 84 36 151 16
96 20 150 16 267 -4 150 -34 353 -56 375 -6 6 -11 18 -11 26 0 15 -37 101 -72
166 -49 93 -189 255 -263 305 -136 92 -172 113 -316 181 -36 17 -167 58 -219
68 -30 6 -80 18 -110 26 -30 8 -75 15 -100 15 -25 1 -79 8 -120 17 -64 13
-195 16 -895 19 -525 3 -825 1 -835 -5z m1735 -644 c66 -14 134 -33 150 -41
17 -9 36 -16 43 -16 8 0 26 -8 40 -18 15 -10 40 -24 55 -32 41 -21 133 -123
163 -181 30 -61 64 -213 64 -294 0 -72 -38 -231 -73 -300 -69 -138 -205 -239
-412 -306 -33 -11 -145 -31 -250 -44 -163 -21 -231 -25 -477 -25 -247 0 -289
2 -302 16 -14 14 -16 85 -16 634 0 579 1 620 18 630 12 7 149 9 447 7 415 -4
434 -5 550 -30z"/>
<path d="M6445 6281 c-109 -29 -198 -101 -245 -198 -30 -62 -33 -77 -34 -163
-1 -84 2 -102 26 -150 36 -74 68 -115 113 -146 56 -38 161 -74 215 -74 60 0
149 33 213 78 60 43 124 138 139 205 15 71 3 189 -24 246 -29 58 -111 141
-163 164 -22 10 -49 23 -60 29 -25 14 -140 20 -180 9z"/>
<path d="M1637 6274 c-3 -4 -29 -14 -58 -23 -57 -19 -136 -80 -164 -126 -62
-103 -83 -187 -65 -257 6 -21 14 -54 19 -74 5 -19 22 -54 37 -77 73 -109 181
-167 309 -167 67 0 81 4 152 40 79 41 133 84 133 106 0 6 6 17 14 23 7 6 23
39 36 72 43 120 15 274 -68 367 -67 75 -172 122 -273 122 -36 0 -68 -3 -72 -6z"/>
<path d="M925 5830 c-3 -5 9 -25 27 -44 18 -19 45 -49 60 -68 15 -18 55 -65
87 -105 57 -67 269 -333 363 -453 78 -100 222 -294 283 -380 13 -19 42 -60 64
-90 22 -30 79 -111 126 -180 47 -69 98 -143 114 -165 49 -69 299 -454 325
-500 9 -17 39 -66 66 -110 42 -68 100 -166 185 -311 49 -82 122 -211 133 -234
7 -14 32 -61 57 -105 82 -149 134 -249 284 -550 153 -308 231 -470 231 -480 0
-6 19 -49 66 -150 7 -16 27 -64 44 -105 18 -41 37 -88 45 -105 7 -16 16 -41
20 -55 4 -14 14 -34 21 -45 8 -11 14 -26 14 -33 0 -8 7 -28 15 -45 8 -18 21
-50 29 -72 8 -22 26 -71 41 -110 39 -104 64 -175 81 -225 8 -25 21 -59 29 -77
8 -17 15 -39 15 -50 0 -10 7 -31 15 -47 8 -16 22 -54 29 -85 8 -31 28 -96 44
-146 16 -49 36 -117 45 -150 37 -141 54 -188 60 -171 10 26 8 379 -3 476 -5
47 -14 157 -20 245 -6 88 -15 178 -20 200 -5 22 -14 83 -20 135 -5 52 -17 124
-25 160 -8 36 -22 101 -31 145 -39 196 -116 506 -136 540 -6 10 -17 42 -24 70
-16 64 -38 128 -81 240 -19 50 -44 115 -55 145 -76 202 -244 551 -366 762 -31
54 -63 111 -71 126 -22 45 -116 192 -191 301 -9 14 -39 60 -66 101 -84 129
-318 426 -483 615 -353 401 -810 804 -1251 1101 -47 31 -96 65 -109 75 -26 21
-56 25 -66 9z"/>
<path d="M7285 5833 c-11 -3 -24 -10 -30 -17 -5 -6 -48 -37 -95 -69 -208 -139
-538 -401 -709 -562 -361 -339 -637 -646 -871 -970 -47 -64 -90 -123 -96 -129
-6 -7 -19 -25 -28 -41 -9 -17 -25 -41 -35 -55 -19 -25 -90 -135 -168 -260
-107 -170 -383 -699 -383 -733 0 -3 -15 -39 -34 -79 -47 -101 -65 -144 -86
-208 -10 -30 -28 -80 -40 -110 -12 -30 -30 -82 -41 -115 -30 -98 -50 -158 -61
-185 -12 -29 -42 -137 -63 -225 -8 -33 -22 -89 -30 -125 -35 -141 -55 -238
-61 -290 -4 -30 -11 -66 -16 -80 -5 -14 -16 -74 -24 -135 -7 -60 -18 -135 -24
-165 -5 -30 -14 -131 -20 -225 -6 -93 -15 -226 -20 -295 -11 -149 -12 -357 -1
-385 6 -15 11 -8 21 35 7 30 16 60 21 66 5 5 17 46 28 90 10 43 29 111 41 149
12 39 28 95 36 125 9 30 22 69 30 87 8 17 14 39 14 49 0 10 8 36 18 58 20 45
46 116 67 186 8 25 26 77 40 115 15 39 33 88 41 110 8 22 19 49 24 60 5 11 16
38 23 60 18 51 83 211 101 250 41 87 66 145 66 154 0 5 7 22 15 38 7 15 24 51
36 78 82 190 309 655 429 880 26 50 64 122 84 160 20 39 48 88 61 110 13 22
31 54 39 70 9 17 27 48 40 70 13 22 36 63 50 91 15 29 38 69 52 90 14 21 30
47 35 58 5 12 19 38 32 58 12 20 39 66 59 101 21 35 44 70 53 77 8 7 15 17 15
22 0 5 18 36 40 69 22 33 40 63 40 65 0 3 8 17 19 32 10 15 34 52 53 82 121
191 212 329 310 468 26 37 53 75 60 86 147 217 497 682 688 912 41 50 90 110
109 134 19 23 46 54 61 68 23 24 30 54 12 51 -4 -1 -16 -3 -27 -6z"/>
<path d="M9430 1783 c-156 -18 -308 -57 -407 -103 -96 -45 -228 -155 -289
-241 -46 -65 -103 -178 -110 -218 -3 -20 -13 -58 -21 -85 -19 -61 -13 -210 12
-306 28 -106 91 -214 175 -300 98 -101 223 -179 316 -196 22 -4 50 -14 64 -23
20 -13 59 -16 240 -16 209 0 217 1 295 28 85 29 159 62 178 78 7 5 30 23 52
39 73 56 105 85 105 98 0 6 7 12 15 12 9 0 20 11 25 25 5 14 14 25 20 25 5 0
10 7 10 15 0 14 -3 14 -29 0 -16 -8 -31 -19 -33 -24 -1 -5 -41 -39 -88 -75
-47 -36 -94 -73 -105 -81 -10 -8 -27 -15 -37 -15 -11 0 -38 -10 -61 -22 -39
-21 -54 -23 -242 -23 -189 0 -202 1 -240 23 -22 12 -46 22 -54 22 -25 0 -143
76 -192 123 -51 50 -94 121 -130 217 -22 61 -24 77 -24 265 0 191 2 203 27
275 58 160 126 257 233 329 25 17 58 34 73 38 15 3 45 14 67 24 34 16 68 19
210 19 147 0 175 -3 205 -18 19 -11 47 -22 62 -26 42 -10 145 -84 193 -139 23
-27 59 -82 80 -124 33 -65 39 -73 52 -60 12 12 13 41 4 192 -6 97 -11 183 -11
191 0 7 -9 18 -21 24 -17 10 -26 6 -60 -30 -36 -37 -45 -41 -77 -37 -21 3 -68
17 -107 32 -38 15 -92 31 -120 36 -27 5 -72 13 -100 19 -72 14 -115 17 -155
13z"/>
<path d="M11899 1786 c-2 -2 -51 -12 -109 -21 -214 -35 -354 -105 -495 -250
-136 -137 -195 -284 -195 -480 0 -122 22 -221 73 -325 34 -71 58 -101 142
-185 85 -85 114 -107 195 -148 52 -26 105 -47 118 -47 13 0 37 -8 55 -17 28
-16 61 -18 242 -18 194 0 215 2 280 23 150 51 283 132 374 230 43 46 121 151
121 163 0 5 11 33 25 62 15 33 31 99 41 173 18 118 17 121 -4 221 -25 116 -64
206 -127 291 -47 65 -154 160 -231 207 -73 44 -220 95 -275 95 -14 0 -39 4
-55 9 -32 10 -168 23 -175 17z m159 -80 c34 -2 68 -8 75 -13 7 -5 34 -18 61
-28 72 -26 184 -140 225 -227 63 -133 79 -219 80 -424 1 -170 -16 -259 -71
-374 -73 -152 -164 -228 -333 -279 -85 -26 -268 -30 -300 -7 -11 7 -36 17 -55
21 -49 10 -138 66 -186 117 -51 54 -94 113 -94 129 0 6 -9 26 -19 43 -11 17
-23 49 -27 71 -4 22 -14 56 -22 75 -12 27 -15 80 -15 230 0 176 2 202 22 265
44 135 80 195 161 275 88 86 160 120 270 130 63 6 98 5 228 -4z"/>
<path d="M13745 1741 c-39 -8 -24 -17 48 -26 75 -9 117 -44 140 -116 15 -45
17 -114 17 -578 0 -489 -1 -529 -19 -576 -14 -38 -27 -55 -55 -70 -20 -11 -36
-22 -36 -25 1 -23 30 -27 210 -31 107 -3 171 -3 143 -1 -45 3 -53 6 -53 22 0
13 -12 25 -33 34 -62 25 -62 25 -62 593 0 281 4 515 8 520 11 10 55 -44 92
-115 17 -31 68 -124 114 -207 46 -82 95 -170 108 -195 13 -25 28 -52 33 -60
17 -30 99 -178 130 -236 113 -213 189 -344 200 -344 23 0 43 16 61 49 11 20
32 59 47 86 16 28 50 91 76 140 27 50 54 97 61 105 6 8 29 49 50 90 20 41 48
93 61 115 13 22 30 54 39 70 9 17 27 48 40 70 13 22 42 76 65 120 22 44 45 87
50 95 5 8 32 57 60 108 43 77 55 92 76 92 16 0 24 -6 24 -17 0 -10 0 -229 0
-488 1 -534 -2 -558 -60 -587 -19 -10 -39 -19 -44 -21 -5 -2 -6 -12 -2 -22 5
-19 15 -20 213 -17 198 3 222 7 223 33 0 4 -14 12 -31 19 -18 8 -38 28 -50 51
-18 37 -19 63 -19 608 0 313 4 580 9 593 19 49 65 86 117 93 144 20 76 34
-166 34 -96 1 -180 -3 -186 -7 -10 -7 -154 -256 -154 -267 0 -3 -25 -49 -56
-103 -30 -53 -62 -110 -70 -127 -8 -16 -25 -48 -38 -70 -24 -41 -35 -62 -125
-230 -29 -55 -58 -105 -63 -112 -5 -6 -24 -40 -41 -75 -35 -70 -70 -118 -84
-118 -15 0 -49 41 -67 80 -9 19 -33 67 -55 105 -21 39 -55 102 -76 140 -21 39
-46 81 -56 94 -11 13 -19 27 -19 31 0 7 -151 283 -180 330 -5 8 -23 42 -41 75
-17 33 -36 67 -43 75 -7 8 -27 44 -45 80 -52 104 -43 100 -265 99 -105 -1
-204 -4 -221 -8z"/>
<path d="M16865 1740 l-40 -6 40 -8 c109 -21 159 -61 170 -138 3 -24 5 -288 3
-588 -3 -499 -5 -548 -21 -577 -9 -18 -30 -39 -46 -47 -16 -9 -31 -24 -34 -35
-4 -15 -15 -20 -48 -23 -24 -2 83 -3 238 -3 155 0 273 3 262 7 -10 4 -19 13
-19 20 0 7 -17 22 -37 33 -31 17 -40 29 -55 80 -15 51 -18 93 -15 284 l2 224
27 20 c26 19 27 19 75 1 75 -29 279 -26 397 6 156 42 233 98 293 212 25 48 28
63 28 153 0 91 -2 104 -27 145 -39 64 -102 123 -181 166 -62 33 -100 45 -247
74 -51 10 -704 11 -765 0z m763 -100 c89 -42 154 -112 175 -187 22 -76 22
-171 0 -225 -21 -55 -75 -122 -122 -154 -70 -46 -268 -84 -286 -55 -3 6 -27
13 -53 17 -88 13 -82 -11 -82 305 l0 280 25 24 c23 24 30 25 152 25 121 0 131
-2 191 -30z"/>
<path d="M19050 1740 c-52 -7 -38 -16 39 -24 43 -4 61 -12 87 -37 48 -46 54
-102 54 -505 1 -385 13 -541 49 -609 39 -75 128 -163 194 -194 151 -70 181
-76 422 -76 203 0 225 2 283 22 34 13 68 23 75 23 17 0 135 79 168 112 34 35
75 96 98 148 29 67 41 238 41 621 0 376 5 409 61 460 18 16 48 31 68 34 20 4
47 9 61 12 45 12 -64 21 -235 21 -228 0 -318 -16 -180 -32 58 -7 100 -42 116
-96 7 -23 9 -191 7 -490 -3 -443 -4 -456 -25 -502 -50 -109 -122 -177 -218
-208 -22 -7 -46 -17 -52 -22 -17 -13 -184 -38 -258 -38 -82 0 -190 23 -251 53
-71 35 -138 115 -166 197 -23 64 -23 73 -23 540 l0 476 25 31 c35 42 53 53
108 59 72 9 82 16 32 25 -54 9 -517 9 -580 -1z"/>
<path d="M21725 1734 c-13 -13 -15 -37 -13 -137 3 -131 16 -159 37 -78 13 53
42 85 110 122 41 23 52 24 235 24 l191 0 3 -603 c2 -665 3 -655 -59 -687 -15
-8 -30 -24 -34 -34 -4 -15 -17 -21 -48 -23 -23 -2 71 -1 208 1 235 3 264 7
265 31 0 3 -17 14 -37 25 -62 34 -63 43 -63 695 0 527 2 576 17 588 12 8 67
12 188 12 164 0 174 -1 221 -25 66 -34 126 -103 143 -162 l13 -48 14 30 c20
43 9 255 -14 273 -12 9 -165 12 -688 12 -603 0 -674 -2 -689 -16z"/>
<path d="M24115 1740 c-36 -6 -37 -7 -15 -13 14 -3 41 -8 61 -12 54 -8 86 -39
104 -97 13 -44 15 -137 15 -597 0 -519 -1 -548 -20 -589 -14 -31 -29 -47 -55
-58 -25 -10 -35 -20 -33 -32 3 -16 45 -17 577 -20 621 -2 611 -3 626 50 9 33
43 116 66 160 20 39 25 83 10 92 -5 3 -24 -15 -42 -40 -43 -59 -121 -137 -151
-151 -126 -57 -96 -53 -403 -53 l-285 0 -32 29 -33 29 0 292 c0 247 2 292 15
301 9 6 106 8 245 7 195 -3 238 -6 284 -22 60 -21 104 -71 115 -131 8 -39 24
-54 37 -34 14 21 7 415 -8 430 -9 9 -13 5 -18 -17 -4 -16 -9 -37 -12 -47 -8
-32 -56 -79 -102 -100 -42 -19 -68 -22 -283 -25 -229 -3 -237 -3 -257 17 -20
20 -21 31 -21 285 0 218 2 266 15 276 10 9 96 11 339 8 l324 -3 44 -30 c25
-18 52 -48 65 -75 21 -42 30 -57 60 -98 10 -15 12 -14 18 8 8 34 -20 236 -35
255 -11 13 -88 15 -594 14 -319 -1 -599 -5 -621 -9z"/>
<path d="M26460 1741 c-40 -8 -28 -14 50 -27 31 -4 54 -16 76 -38 28 -28 33
-41 39 -106 3 -41 5 -311 3 -600 l-3 -525 -24 -31 c-12 -18 -34 -37 -48 -43
-15 -7 -23 -18 -21 -29 3 -15 22 -17 202 -20 190 -2 226 2 226 28 0 4 -18 15
-39 25 -37 16 -40 21 -53 84 -8 43 -13 142 -13 289 0 210 1 224 19 238 26 19
138 18 174 0 15 -8 56 -49 92 -92 36 -42 75 -89 88 -102 12 -14 44 -50 70 -81
44 -51 131 -150 142 -161 3 -3 30 -34 60 -70 30 -36 74 -85 97 -110 l42 -45
143 -3 c136 -3 218 7 218 27 0 5 -21 14 -47 20 -27 7 -55 17 -63 22 -8 5 -29
16 -46 24 -47 21 -164 135 -266 258 -51 61 -114 134 -139 162 -149 161 -156
189 -47 209 72 13 192 80 238 132 71 81 75 91 75 204 0 103 -1 106 -33 152
-68 98 -160 155 -306 191 -73 17 -121 20 -476 22 -217 2 -411 0 -430 -4z m697
-71 c109 -12 163 -42 235 -128 28 -33 58 -121 58 -168 0 -15 -7 -54 -16 -86
-39 -137 -202 -229 -434 -243 -157 -10 -145 -36 -143 311 1 194 5 290 13 298
10 10 85 21 170 24 19 1 72 -2 117 -8z"/>
<path d="M13783 313 c9 -2 25 -2 35 0 9 3 1 5 -18 5 -19 0 -27 -2 -17 -5z"/>
<path d="M15798 313 c12 -2 32 -2 45 0 12 2 2 4 -23 4 -25 0 -35 -2 -22 -4z"/>
<path d="M24108 313 c12 -2 30 -2 40 0 9 3 -1 5 -23 4 -22 0 -30 -2 -17 -4z"/>
<path d="M27038 313 c6 -2 18 -2 25 0 6 3 1 5 -13 5 -14 0 -19 -2 -12 -5z"/>
</g>
</svg>
