<?xml version="1.0" standalone="no"?>
<!DOCTYPE svg PUBLIC "-//W3C//DTD SVG 20010904//EN"
 "http://www.w3.org/TR/2001/REC-SVG-20010904/DTD/svg10.dtd">
<svg version="1.0" xmlns="http://www.w3.org/2000/svg"
 width="711.000000pt" height="798.000000pt" viewBox="0 0 711.000000 798.000000"
 preserveAspectRatio="xMidYMid meet">

<g transform="translate(0.000000,798.000000) scale(0.100000,-0.100000)"
fill="#ccc" stroke="none">
<path d="M3600 7421 c-131 -15 -267 -120 -337 -259 -38 -76 -38 -78 -38 -192
1 -158 29 -231 125 -329 69 -71 116 -98 230 -133 58 -17 218 -5 265 20 22 12
43 22 48 22 15 0 72 44 123 96 30 30 66 81 85 120 33 68 34 72 34 199 0 117
-2 135 -24 180 -34 69 -115 170 -165 203 -88 60 -220 88 -346 73z"/>
<path d="M5143 6806 c-4 -8 -35 -36 -68 -62 -33 -27 -67 -55 -75 -62 -88 -79
-188 -145 -326 -217 -27 -14 -56 -30 -64 -35 -39 -25 -294 -140 -311 -140 -10
0 -36 -7 -56 -15 -21 -8 -74 -22 -118 -30 -44 -8 -111 -22 -150 -31 -58 -13
-109 -15 -290 -10 -194 4 -230 8 -305 29 -95 27 -204 63 -235 76 -20 9 -133
60 -190 87 -26 12 -140 59 -200 83 -28 11 -246 120 -269 134 -11 7 -62 41
-113 76 -52 35 -97 61 -100 58 -6 -6 57 -137 135 -282 27 -49 64 -124 81 -165
18 -41 36 -83 42 -94 6 -10 17 -37 24 -60 7 -22 24 -70 38 -106 13 -36 41
-110 61 -165 20 -55 43 -114 51 -132 8 -17 15 -35 15 -40 0 -4 9 -37 20 -73
10 -36 31 -105 45 -155 15 -49 33 -106 40 -125 8 -19 25 -78 40 -130 28 -106
72 -252 86 -290 17 -48 59 -200 59 -216 0 -9 7 -30 15 -47 24 -53 62 -198 70
-267 4 -36 13 -79 20 -97 8 -18 17 -54 21 -80 3 -26 13 -64 21 -83 8 -19 18
-55 23 -80 10 -57 48 -214 62 -258 5 -19 16 -70 23 -115 26 -159 46 -273 61
-342 8 -38 19 -101 25 -139 5 -38 12 -73 15 -78 8 -12 43 -204 59 -323 8 -55
21 -138 29 -185 8 -47 20 -112 25 -145 5 -33 17 -105 26 -160 9 -55 22 -138
30 -185 7 -47 17 -121 20 -165 3 -44 12 -111 20 -150 7 -38 16 -108 20 -155 3
-47 13 -121 20 -165 8 -44 19 -161 25 -259 6 -98 13 -183 16 -187 3 -5 11 -87
19 -184 8 -96 21 -212 29 -257 8 -46 18 -109 22 -141 3 -32 8 -57 10 -55 1 2
8 62 14 133 6 72 15 150 21 174 5 24 16 125 25 225 8 99 16 188 19 196 2 8 11
103 20 210 9 107 20 211 25 230 5 19 12 76 15 125 4 50 13 117 20 150 8 33 19
113 25 177 6 65 14 128 19 140 5 13 12 59 15 103 4 44 14 107 21 140 8 33 21
111 30 174 8 62 17 117 20 121 2 4 9 49 15 101 6 52 17 117 25 144 7 28 18 85
24 128 6 43 15 86 20 95 5 9 14 57 20 105 7 48 16 98 20 111 5 12 12 49 16 82
11 109 98 522 150 714 33 124 54 218 60 275 4 33 13 72 20 87 7 15 16 42 20
60 3 18 15 60 26 93 20 61 63 212 105 365 27 98 95 334 125 430 11 36 28 97
39 135 10 39 30 102 45 140 14 39 33 90 40 115 30 98 47 147 66 186 10 23 19
47 19 54 0 6 6 26 14 43 8 18 37 88 64 157 28 69 64 150 81 180 16 30 46 89
66 130 20 41 43 87 51 102 25 46 12 108 -13 64z"/>
<path d="M6035 6281 c-109 -29 -198 -101 -245 -198 -30 -62 -33 -77 -34 -163
-1 -84 2 -102 26 -150 36 -74 68 -115 113 -146 56 -38 161 -74 215 -74 60 0
149 33 213 78 60 43 124 138 139 205 15 71 3 189 -24 246 -29 58 -111 141
-163 164 -22 10 -49 23 -60 29 -25 14 -140 20 -180 9z"/>
<path d="M1227 6274 c-3 -4 -29 -14 -58 -23 -57 -19 -136 -80 -164 -126 -62
-103 -83 -187 -65 -257 6 -21 14 -54 19 -74 5 -19 22 -54 37 -77 73 -109 181
-167 309 -167 67 0 81 4 152 40 79 41 133 84 133 106 0 6 6 17 14 23 7 6 23
39 36 72 43 120 15 274 -68 367 -67 75 -172 122 -273 122 -36 0 -68 -3 -72 -6z"/>
<path d="M515 5830 c-3 -5 9 -25 27 -44 18 -19 45 -49 60 -68 15 -18 55 -65
87 -105 57 -67 269 -333 363 -453 78 -100 222 -294 283 -380 13 -19 42 -60 64
-90 22 -30 79 -111 126 -180 47 -69 98 -143 114 -165 49 -69 299 -454 325
-500 9 -17 39 -66 66 -110 42 -68 100 -166 185 -311 49 -82 122 -211 133 -234
7 -14 32 -61 57 -105 82 -149 134 -249 284 -550 153 -308 231 -470 231 -480 0
-6 19 -49 66 -150 7 -16 27 -64 44 -105 18 -41 37 -88 45 -105 7 -16 16 -41
20 -55 4 -14 14 -34 21 -45 8 -11 14 -26 14 -33 0 -8 7 -28 15 -45 8 -18 21
-50 29 -72 8 -22 26 -71 41 -110 39 -104 64 -175 81 -225 8 -25 21 -59 29 -77
8 -17 15 -39 15 -50 0 -10 7 -31 15 -47 8 -16 22 -54 29 -85 8 -31 28 -96 44
-146 16 -49 36 -117 45 -150 37 -141 54 -188 60 -171 10 26 8 379 -3 476 -5
47 -14 157 -20 245 -6 88 -15 178 -20 200 -5 22 -14 83 -20 135 -5 52 -17 124
-25 160 -8 36 -22 101 -31 145 -39 196 -116 506 -136 540 -6 10 -17 42 -24 70
-16 64 -38 128 -81 240 -19 50 -44 115 -55 145 -76 202 -244 551 -366 762 -31
54 -63 111 -71 126 -22 45 -116 192 -191 301 -9 14 -39 60 -66 101 -84 129
-318 426 -483 615 -353 401 -810 804 -1251 1101 -47 31 -96 65 -109 75 -26 21
-56 25 -66 9z"/>
<path d="M6875 5833 c-11 -3 -24 -10 -30 -17 -5 -6 -48 -37 -95 -69 -208 -139
-538 -401 -709 -562 -361 -339 -637 -646 -871 -970 -47 -64 -90 -123 -96 -129
-6 -7 -19 -25 -28 -41 -9 -17 -25 -41 -35 -55 -19 -25 -90 -135 -168 -260
-107 -170 -383 -699 -383 -733 0 -3 -15 -39 -34 -79 -47 -101 -65 -144 -86
-208 -10 -30 -28 -80 -40 -110 -12 -30 -30 -82 -41 -115 -30 -98 -50 -158 -61
-185 -12 -29 -42 -137 -63 -225 -8 -33 -22 -89 -30 -125 -35 -141 -55 -238
-61 -290 -4 -30 -11 -66 -16 -80 -5 -14 -16 -74 -24 -135 -7 -60 -18 -135 -24
-165 -5 -30 -14 -131 -20 -225 -6 -93 -15 -226 -20 -295 -11 -149 -12 -357 -1
-385 6 -15 11 -8 21 35 7 30 16 60 21 66 5 5 17 46 28 90 10 43 29 111 41 149
12 39 28 95 36 125 9 30 22 69 30 87 8 17 14 39 14 49 0 10 8 36 18 58 20 45
46 116 67 186 8 25 26 77 40 115 15 39 33 88 41 110 8 22 19 49 24 60 5 11 16
38 23 60 18 51 83 211 101 250 41 87 66 145 66 154 0 5 7 22 15 38 7 15 24 51
36 78 82 190 309 655 429 880 26 50 64 122 84 160 20 39 48 88 61 110 13 22
31 54 39 70 9 17 27 48 40 70 13 22 36 63 50 91 15 29 38 69 52 90 14 21 30
47 35 58 5 12 19 38 32 58 12 20 39 66 59 101 21 35 44 70 53 77 8 7 15 17 15
22 0 5 18 36 40 69 22 33 40 63 40 65 0 3 8 17 19 32 10 15 34 52 53 82 121
191 212 329 310 468 26 37 53 75 60 86 147 217 497 682 688 912 41 50 90 110
109 134 19 23 46 54 61 68 23 24 30 54 12 51 -4 -1 -16 -3 -27 -6z"/>
</g>
</svg>
